<?xml version="1.0" encoding="utf-8"?>
<!-- Generator: Adobe Illustrator 26.0.1, SVG Export Plug-In . SVG Version: 6.00 Build 0)  -->
<svg version="1.1" id="Layer_1" xmlns="http://www.w3.org/2000/svg" xmlns:xlink="http://www.w3.org/1999/xlink" x="0px" y="0px"
	 viewBox="0 0 609.7 389" style="enable-background:new 0 0 609.7 389;" xml:space="preserve">
<style type="text/css">
	.st0{fill:#FFFFFF;}
</style>
<path d="M464.3,283.9l-3.5-2.4l-130.8,61l62.6,43.8c6.8,4.8,16.1,3.1,20.9-3.7l54.5-77.8C472.7,298,471.1,288.6,464.3,283.9
	C464.3,283.9,464.3,283.9,464.3,283.9z"/>
<path d="M480.2,236.4c-0.7-1.6-1.9-3-3.4-4L212.2,47.1c-4.4-3.1-10.1-3.6-14.9-1.3L11.5,132.4c-5,2.3-7.2,8.3-4.8,13.3
	c0.7,1.6,1.9,3,3.3,4l91.4,64L0,272.3l37.5,65l131.7-76.1L274.6,335c4.4,3.1,10.1,3.6,15,1.3l185.8-86.6
	C480.4,247.4,482.6,241.4,480.2,236.4z M321.6,288.1C321.6,288.1,321.6,288.1,321.6,288.1c-6.7,9.6-19.9,11.9-29.5,5.2
	c-9.6-6.7-11.9-19.9-5.2-29.5c6.7-9.6,19.9-11.9,29.5-5.2C326,265.3,328.3,278.5,321.6,288.1z"/>
<polygon class="st0" points="446.5,172.9 312.9,97.9 247.2,124.7 297.6,149.5 292,201.7 362.9,206 371.6,250.4 "/>
<polygon points="495.4,98.8 552.5,50.9 513.9,5 457.6,0 315.9,118.9 380.2,195.5 438,147 552.2,283.1 609.7,234.9 "/>
</svg>
